<mxfile host="app.diagrams.net" modified="2020-07-20T13:47:06.657Z" agent="5.0 (Windows NT 10.0; Win64; x64) AppleWebKit/537.36 (KHTML, like Gecko) Chrome/79.0.3945.88 Safari/537.36" etag="pRyKZK_ZjZ-H4zPRnzeR" version="13.4.8" type="github">
  <diagram id="ioMermNGrfh_SP2Wnk9f" name="Page-1">
    <mxGraphModel dx="1422" dy="762" grid="1" gridSize="10" guides="1" tooltips="1" connect="1" arrows="1" fold="1" page="1" pageScale="1" pageWidth="827" pageHeight="1169" math="0" shadow="0">
      <root>
        <mxCell id="0" />
        <mxCell id="1" parent="0" />
        <mxCell id="RfRwWwlfyMmc46xvIZld-1" value="&lt;font style=&quot;font-size: 18px&quot;&gt;&lt;b&gt;互联网&lt;/b&gt;&lt;/font&gt;" style="rounded=0;whiteSpace=wrap;html=1;" vertex="1" parent="1">
          <mxGeometry x="380" y="90" width="140" height="30" as="geometry" />
        </mxCell>
        <mxCell id="RfRwWwlfyMmc46xvIZld-2" value="&lt;font style=&quot;font-size: 18px&quot;&gt;focus question:互联网由什么组成？&lt;/font&gt;" style="text;html=1;strokeColor=none;fillColor=none;align=center;verticalAlign=middle;whiteSpace=wrap;rounded=0;" vertex="1" parent="1">
          <mxGeometry x="120" y="30" width="410" height="20" as="geometry" />
        </mxCell>
        <mxCell id="RfRwWwlfyMmc46xvIZld-3" style="edgeStyle=orthogonalEdgeStyle;rounded=0;orthogonalLoop=1;jettySize=auto;html=1;exitX=0.5;exitY=1;exitDx=0;exitDy=0;" edge="1" parent="1" source="RfRwWwlfyMmc46xvIZld-1" target="RfRwWwlfyMmc46xvIZld-1">
          <mxGeometry relative="1" as="geometry" />
        </mxCell>
        <mxCell id="RfRwWwlfyMmc46xvIZld-4" value="由...组成" style="endArrow=classic;html=1;entryX=0.5;entryY=0;entryDx=0;entryDy=0;exitX=0.25;exitY=1;exitDx=0;exitDy=0;" edge="1" parent="1" source="RfRwWwlfyMmc46xvIZld-1" target="RfRwWwlfyMmc46xvIZld-8">
          <mxGeometry x="-0.047" y="-4" width="50" height="50" relative="1" as="geometry">
            <mxPoint x="280" y="110" as="sourcePoint" />
            <mxPoint x="230" y="180" as="targetPoint" />
            <Array as="points" />
            <mxPoint as="offset" />
          </mxGeometry>
        </mxCell>
        <mxCell id="RfRwWwlfyMmc46xvIZld-6" value="由...组成" style="endArrow=classic;html=1;exitX=0.75;exitY=1;exitDx=0;exitDy=0;entryX=0.433;entryY=0.025;entryDx=0;entryDy=0;entryPerimeter=0;" edge="1" parent="1" source="RfRwWwlfyMmc46xvIZld-1" target="RfRwWwlfyMmc46xvIZld-9">
          <mxGeometry width="50" height="50" relative="1" as="geometry">
            <mxPoint x="330" y="200" as="sourcePoint" />
            <mxPoint x="370" y="180" as="targetPoint" />
          </mxGeometry>
        </mxCell>
        <mxCell id="RfRwWwlfyMmc46xvIZld-8" value="连接设备" style="rounded=0;whiteSpace=wrap;html=1;" vertex="1" parent="1">
          <mxGeometry x="190" y="180" width="120" height="40" as="geometry" />
        </mxCell>
        <mxCell id="RfRwWwlfyMmc46xvIZld-9" value="网络" style="rounded=0;whiteSpace=wrap;html=1;" vertex="1" parent="1">
          <mxGeometry x="592.5" y="180" width="120" height="40" as="geometry" />
        </mxCell>
        <mxCell id="RfRwWwlfyMmc46xvIZld-12" value="遵循" style="endArrow=classic;html=1;entryX=0.5;entryY=0;entryDx=0;entryDy=0;exitX=0.25;exitY=1;exitDx=0;exitDy=0;" edge="1" parent="1" source="RfRwWwlfyMmc46xvIZld-9" target="RfRwWwlfyMmc46xvIZld-18">
          <mxGeometry width="50" height="50" relative="1" as="geometry">
            <mxPoint x="440" y="220" as="sourcePoint" />
            <mxPoint x="440" y="300" as="targetPoint" />
            <Array as="points" />
            <mxPoint as="offset" />
          </mxGeometry>
        </mxCell>
        <mxCell id="RfRwWwlfyMmc46xvIZld-13" value="包括" style="endArrow=classic;html=1;exitX=0.25;exitY=1;exitDx=0;exitDy=0;entryX=0.5;entryY=0;entryDx=0;entryDy=0;" edge="1" parent="1" source="RfRwWwlfyMmc46xvIZld-8" target="RfRwWwlfyMmc46xvIZld-16">
          <mxGeometry width="50" height="50" relative="1" as="geometry">
            <mxPoint x="170" y="240" as="sourcePoint" />
            <mxPoint x="150" y="300" as="targetPoint" />
            <Array as="points" />
          </mxGeometry>
        </mxCell>
        <mxCell id="RfRwWwlfyMmc46xvIZld-14" value="包括" style="endArrow=classic;html=1;entryX=0.45;entryY=0.033;entryDx=0;entryDy=0;entryPerimeter=0;" edge="1" parent="1" target="RfRwWwlfyMmc46xvIZld-17">
          <mxGeometry width="50" height="50" relative="1" as="geometry">
            <mxPoint x="260" y="221" as="sourcePoint" />
            <mxPoint x="197" y="310" as="targetPoint" />
            <Array as="points" />
          </mxGeometry>
        </mxCell>
        <mxCell id="RfRwWwlfyMmc46xvIZld-15" value="提供" style="endArrow=classic;html=1;exitX=0.75;exitY=1;exitDx=0;exitDy=0;" edge="1" parent="1" source="RfRwWwlfyMmc46xvIZld-9" target="RfRwWwlfyMmc46xvIZld-19">
          <mxGeometry width="50" height="50" relative="1" as="geometry">
            <mxPoint x="440" y="220" as="sourcePoint" />
            <mxPoint x="440" y="300" as="targetPoint" />
            <mxPoint as="offset" />
          </mxGeometry>
        </mxCell>
        <mxCell id="RfRwWwlfyMmc46xvIZld-16" value="中间设备" style="rounded=0;whiteSpace=wrap;html=1;" vertex="1" parent="1">
          <mxGeometry x="30" y="320" width="120" height="60" as="geometry" />
        </mxCell>
        <mxCell id="RfRwWwlfyMmc46xvIZld-17" value="终端设备" style="rounded=0;whiteSpace=wrap;html=1;" vertex="1" parent="1">
          <mxGeometry x="210" y="320" width="120" height="60" as="geometry" />
        </mxCell>
        <mxCell id="RfRwWwlfyMmc46xvIZld-18" value="协议" style="rounded=0;whiteSpace=wrap;html=1;" vertex="1" parent="1">
          <mxGeometry x="530" y="310" width="120" height="60" as="geometry" />
        </mxCell>
        <mxCell id="RfRwWwlfyMmc46xvIZld-19" value="服务" style="rounded=0;whiteSpace=wrap;html=1;" vertex="1" parent="1">
          <mxGeometry x="690" y="310" width="120" height="60" as="geometry" />
        </mxCell>
        <mxCell id="RfRwWwlfyMmc46xvIZld-21" value="IP" style="rounded=0;whiteSpace=wrap;html=1;" vertex="1" parent="1">
          <mxGeometry x="502.5" y="470" width="75" height="60" as="geometry" />
        </mxCell>
        <mxCell id="RfRwWwlfyMmc46xvIZld-28" value="例如" style="endArrow=classic;html=1;exitX=0.642;exitY=1.033;exitDx=0;exitDy=0;exitPerimeter=0;" edge="1" parent="1">
          <mxGeometry x="-0.1276" width="50" height="50" relative="1" as="geometry">
            <mxPoint x="70.03999999999996" y="380" as="sourcePoint" />
            <mxPoint x="50" y="469" as="targetPoint" />
            <Array as="points" />
            <mxPoint as="offset" />
          </mxGeometry>
        </mxCell>
        <mxCell id="RfRwWwlfyMmc46xvIZld-29" value="例如" style="endArrow=classic;html=1;exitX=0.642;exitY=1.033;exitDx=0;exitDy=0;exitPerimeter=0;entryX=0.5;entryY=0;entryDx=0;entryDy=0;" edge="1" parent="1" target="RfRwWwlfyMmc46xvIZld-41">
          <mxGeometry x="-0.0977" y="4" width="50" height="50" relative="1" as="geometry">
            <mxPoint x="119.99999999999996" y="380" as="sourcePoint" />
            <mxPoint x="132.96" y="458.68" as="targetPoint" />
            <Array as="points" />
            <mxPoint as="offset" />
          </mxGeometry>
        </mxCell>
        <mxCell id="RfRwWwlfyMmc46xvIZld-32" value="例如" style="endArrow=classic;html=1;exitX=0.642;exitY=1.033;exitDx=0;exitDy=0;exitPerimeter=0;" edge="1" parent="1">
          <mxGeometry x="-0.1276" width="50" height="50" relative="1" as="geometry">
            <mxPoint x="250.03999999999996" y="380" as="sourcePoint" />
            <mxPoint x="230" y="469" as="targetPoint" />
            <Array as="points" />
            <mxPoint as="offset" />
          </mxGeometry>
        </mxCell>
        <mxCell id="RfRwWwlfyMmc46xvIZld-33" value="例如" style="endArrow=classic;html=1;exitX=0.642;exitY=1.033;exitDx=0;exitDy=0;exitPerimeter=0;" edge="1" parent="1">
          <mxGeometry x="-0.1276" width="50" height="50" relative="1" as="geometry">
            <mxPoint x="290.03999999999996" y="380" as="sourcePoint" />
            <mxPoint x="310" y="469" as="targetPoint" />
            <Array as="points" />
            <mxPoint as="offset" />
          </mxGeometry>
        </mxCell>
        <mxCell id="RfRwWwlfyMmc46xvIZld-34" value="例如" style="endArrow=classic;html=1;exitX=0.392;exitY=1;exitDx=0;exitDy=0;exitPerimeter=0;entryX=0.5;entryY=0;entryDx=0;entryDy=0;" edge="1" parent="1" source="RfRwWwlfyMmc46xvIZld-18" target="RfRwWwlfyMmc46xvIZld-21">
          <mxGeometry x="0.0979" width="50" height="50" relative="1" as="geometry">
            <mxPoint x="437.03999999999996" y="381.32" as="sourcePoint" />
            <mxPoint x="437" y="470.00000000000006" as="targetPoint" />
            <Array as="points" />
            <mxPoint as="offset" />
          </mxGeometry>
        </mxCell>
        <mxCell id="RfRwWwlfyMmc46xvIZld-35" value="例如" style="endArrow=classic;html=1;exitX=0.642;exitY=1.033;exitDx=0;exitDy=0;exitPerimeter=0;entryX=0.5;entryY=0;entryDx=0;entryDy=0;" edge="1" parent="1" target="RfRwWwlfyMmc46xvIZld-43">
          <mxGeometry x="-0.1276" width="50" height="50" relative="1" as="geometry">
            <mxPoint x="600" y="370" as="sourcePoint" />
            <mxPoint x="619.96" y="459" as="targetPoint" />
            <Array as="points" />
            <mxPoint as="offset" />
          </mxGeometry>
        </mxCell>
        <mxCell id="RfRwWwlfyMmc46xvIZld-37" value="例如" style="endArrow=classic;html=1;exitX=0.5;exitY=1;exitDx=0;exitDy=0;entryX=0.5;entryY=0;entryDx=0;entryDy=0;" edge="1" parent="1" source="RfRwWwlfyMmc46xvIZld-19" target="RfRwWwlfyMmc46xvIZld-40">
          <mxGeometry x="-0.1276" width="50" height="50" relative="1" as="geometry">
            <mxPoint x="749.54" y="390" as="sourcePoint" />
            <mxPoint x="749.5" y="478.68000000000006" as="targetPoint" />
            <Array as="points" />
            <mxPoint as="offset" />
          </mxGeometry>
        </mxCell>
        <mxCell id="RfRwWwlfyMmc46xvIZld-38" value="电脑" style="rounded=0;whiteSpace=wrap;html=1;" vertex="1" parent="1">
          <mxGeometry x="275" y="470" width="75" height="60" as="geometry" />
        </mxCell>
        <mxCell id="RfRwWwlfyMmc46xvIZld-39" value="路由器" style="rounded=0;whiteSpace=wrap;html=1;" vertex="1" parent="1">
          <mxGeometry x="10" y="470" width="75" height="60" as="geometry" />
        </mxCell>
        <mxCell id="RfRwWwlfyMmc46xvIZld-40" value="qq聊天" style="rounded=0;whiteSpace=wrap;html=1;" vertex="1" parent="1">
          <mxGeometry x="712.5" y="470" width="75" height="60" as="geometry" />
        </mxCell>
        <mxCell id="RfRwWwlfyMmc46xvIZld-41" value="转换器" style="rounded=0;whiteSpace=wrap;html=1;" vertex="1" parent="1">
          <mxGeometry x="95" y="470" width="75" height="60" as="geometry" />
        </mxCell>
        <mxCell id="RfRwWwlfyMmc46xvIZld-42" value="手机" style="rounded=0;whiteSpace=wrap;html=1;" vertex="1" parent="1">
          <mxGeometry x="190" y="470" width="75" height="60" as="geometry" />
        </mxCell>
        <mxCell id="RfRwWwlfyMmc46xvIZld-43" value="TCP" style="rounded=0;whiteSpace=wrap;html=1;" vertex="1" parent="1">
          <mxGeometry x="615" y="470" width="75" height="60" as="geometry" />
        </mxCell>
        <mxCell id="RfRwWwlfyMmc46xvIZld-44" value="包括" style="endArrow=classic;html=1;exitX=0.75;exitY=1;exitDx=0;exitDy=0;" edge="1" parent="1" source="RfRwWwlfyMmc46xvIZld-8">
          <mxGeometry width="50" height="50" relative="1" as="geometry">
            <mxPoint x="270" y="231" as="sourcePoint" />
            <mxPoint x="410" y="320" as="targetPoint" />
            <Array as="points" />
          </mxGeometry>
        </mxCell>
        <mxCell id="RfRwWwlfyMmc46xvIZld-46" value="例如" style="edgeStyle=none;rounded=0;orthogonalLoop=1;jettySize=auto;html=1;exitX=0.5;exitY=1;exitDx=0;exitDy=0;entryX=0.5;entryY=0;entryDx=0;entryDy=0;" edge="1" parent="1" source="RfRwWwlfyMmc46xvIZld-45" target="RfRwWwlfyMmc46xvIZld-47">
          <mxGeometry relative="1" as="geometry">
            <mxPoint x="414" y="460" as="targetPoint" />
          </mxGeometry>
        </mxCell>
        <mxCell id="RfRwWwlfyMmc46xvIZld-45" value="连接线" style="rounded=0;whiteSpace=wrap;html=1;" vertex="1" parent="1">
          <mxGeometry x="354" y="320" width="120" height="60" as="geometry" />
        </mxCell>
        <mxCell id="RfRwWwlfyMmc46xvIZld-47" value="光纤" style="rounded=0;whiteSpace=wrap;html=1;" vertex="1" parent="1">
          <mxGeometry x="376.5" y="470" width="75" height="60" as="geometry" />
        </mxCell>
        <mxCell id="RfRwWwlfyMmc46xvIZld-48" style="edgeStyle=none;rounded=0;orthogonalLoop=1;jettySize=auto;html=1;entryX=0.5;entryY=0;entryDx=0;entryDy=0;" edge="1" parent="1" source="RfRwWwlfyMmc46xvIZld-47" target="RfRwWwlfyMmc46xvIZld-47">
          <mxGeometry relative="1" as="geometry" />
        </mxCell>
      </root>
    </mxGraphModel>
  </diagram>
</mxfile>
